<svg width="66" height="66" viewBox="0 0 66 66" fill="none" xmlns="http://www.w3.org/2000/svg">
<rect width="66" height="66" fill="#E5E5E5"/>
<mask id="mask0_153_3" style="mask-type:alpha" maskUnits="userSpaceOnUse" x="0" y="0" width="66" height="66">
<path d="M0 11.88C0 8.72923 1.25164 5.7075 3.47957 3.47957C5.7075 1.25164 8.72923 0 11.88 0H54.12C57.2708 0 60.2925 1.25164 62.5204 3.47957C64.7484 5.7075 66 8.72923 66 11.88V54.12C66 57.2708 64.7484 60.2925 62.5204 62.5204C60.2925 64.7484 57.2708 66 54.12 66H11.88C8.72923 66 5.7075 64.7484 3.47957 62.5204C1.25164 60.2925 0 57.2708 0 54.12V11.88Z" fill="white"/>
</mask>
<g mask="url(#mask0_153_3)">
<path d="M0 0L0 66H66V0H0Z" fill="url(#paint0_linear_153_3)"/>
<path d="M0 0L0 66H66V0H0Z" fill="url(#paint1_linear_153_3)"/>
</g>
<path d="M33 10.5703C29.718 10.5703 26.5703 11.8741 24.2496 14.1949C21.9288 16.5156 20.625 19.6633 20.625 22.9453V36.8672C20.6209 39.8 21.6625 42.6383 23.5628 44.8723C23.7007 44.8645 23.8374 44.8594 23.9766 44.8594C25.3431 44.8588 26.6818 45.2461 27.8369 45.9764C28.992 46.7066 29.9161 47.7497 30.5018 48.9844C32.3006 49.3535 34.1589 49.3179 35.9423 48.8803C37.7257 48.4427 39.3894 47.614 40.813 46.4542C42.2366 45.2943 43.3845 43.8325 44.1735 42.1744C44.9625 40.5163 45.3729 38.7034 45.375 36.8672V22.9453C45.375 19.6633 44.0712 16.5156 41.7505 14.1949C39.4297 11.8741 36.2821 10.5703 33 10.5703ZM38.6719 36.8672C38.6719 38.3715 38.0743 39.8141 37.0106 40.8778C35.947 41.9415 34.5043 42.5391 33 42.5391C31.4957 42.5391 30.0531 41.9415 28.9894 40.8778C27.9257 39.8141 27.3281 38.3715 27.3281 36.8672V22.9453C27.3281 21.441 27.9257 19.9984 28.9894 18.9347C30.0531 17.871 31.4957 17.2734 33 17.2734C34.5043 17.2734 35.947 17.871 37.0106 18.9347C38.0743 19.9984 38.6719 21.441 38.6719 22.9453V36.8672ZM23.9766 48.7266C24.8655 48.7266 25.7179 49.0797 26.3465 49.7082C26.975 50.3368 27.3281 51.1892 27.3281 52.0781C27.3281 52.967 26.975 53.8195 26.3465 54.448C25.7179 55.0766 24.8655 55.4297 23.9766 55.4297C23.0877 55.4297 22.2352 55.0766 21.6067 54.448C20.9781 53.8195 20.625 52.967 20.625 52.0781C20.625 51.1892 20.9781 50.3368 21.6067 49.7082C22.2352 49.0797 23.0877 48.7266 23.9766 48.7266Z" fill="white"/>
<defs>
<linearGradient id="paint0_linear_153_3" x1="47.4672" y1="72.7457" x2="18.5341" y2="-6.74567" gradientUnits="userSpaceOnUse">
<stop stop-color="#FF6000"/>
<stop offset="0.2" stop-color="#FF5C04"/>
<stop offset="0.41" stop-color="#FF4F11"/>
<stop offset="0.62" stop-color="#FF3B25"/>
<stop offset="0.83" stop-color="#FF1E42"/>
<stop offset="1" stop-color="#FF0060"/>
</linearGradient>
<linearGradient id="paint1_linear_153_3" x1="-6.03926" y1="55.5393" x2="72.0393" y2="10.4607" gradientUnits="userSpaceOnUse">
<stop stop-color="#FFE000"/>
<stop offset="0.12" stop-color="#FFE000" stop-opacity="0.78"/>
<stop offset="0.28" stop-color="#FFE000" stop-opacity="0.5"/>
<stop offset="0.42" stop-color="#FFE000" stop-opacity="0.29"/>
<stop offset="0.54" stop-color="#FFE000" stop-opacity="0.13"/>
<stop offset="0.64" stop-color="#FFE000" stop-opacity="0.04"/>
<stop offset="0.7" stop-color="#FFE000" stop-opacity="0"/>
</linearGradient>
</defs>
</svg>
